<svg xmlns="http://www.w3.org/2000/svg" viewBox="0 0 326.14 326.14"><defs><style>.cls-1{fill-rule:evenodd;}</style></defs><g id="Calque_2" data-name="Calque 2"><g id="Layer_1" data-name="Layer 1"><path class="cls-1" d="M260,186.52h0c-2.81,13.56-15.32,48.34-55.19,67.18l-16-18-27,27.16a99.71,99.71,0,0,1-78.86-40.45,39.08,39.08,0,0,0,8.84,1.66c4.42.08,9.21-1.54,9.21-9V141.82a12,12,0,0,0-15.18-12.07c-12.5,2.86-22.5,34.07-22.5,34.07A99.27,99.27,0,0,1,97.64,87.76C116.26,72,134.45,66.52,148.27,64.38c-13.65,7.78-21.33,20.48-21.33,31.14,0,17.09,10.32,15.07,13.38,12.55V207a16.11,16.11,0,0,0,2,3.49,14.57,14.57,0,0,0,12,6c10.34,0,23.75-11.8,23.75-11.8v-80.1c0-8.15-6.14-18-12.29-21.36,0,0,11.38-2,20.18,4.71h0a75.86,75.86,0,0,1,5.26-5.79C211.65,82.08,231,76.38,247,73.52h0s-29.27,23-29.27,53.8c0,22.93.59,78.84.59,78.84C229.25,216.62,245.38,201.52,260,186.52Z"/><path class="cls-1" d="M163.06,0A163.07,163.07,0,1,0,326.14,163.06h0A163.05,163.05,0,0,0,163.08,0Zm0,319.61A156.55,156.55,0,1,1,319.6,163.05h0A156.55,156.55,0,0,1,163.06,319.61Z"/></g></g></svg>